<svg version="1.1" class="clearos-svg clearfoundation app-vendor-clearfoundation app-free app-category-system app-sub-category-account-manager" viewBox="0 0 400 400" preserveAspectRatio="xMinYMin" xmlns="http://www.w3.org/2000/svg" xmlns:xlink= "http://www.w3.org/1999/xlink">
<path fill="#AA0707" d="M441.666,184.647"/>
<path fill="#AA0707" d="M473.245,247.805"/>
<path fill="#AA0707" d="M441.666,184.647"/>
<path fill="#AA0707" d="M473.245,247.805"/>
<g>
	<path fill="#686868" d="M242.584,149.959L242.584,149.959c21.943-14.425,36.447-39.271,36.447-67.526
		c0-44.608-36.164-80.773-80.773-80.773c-44.625,0-80.806,36.165-80.806,80.773c0,29.792,16.104,55.785,40.089,69.786v18.303
		l41.313,29.164l43.73-29.164V149.959L242.584,149.959z"/>
	<path fill="#686868" d="M130.261,185.246c-0.736-4.207-10.86-3.108-15.54,0c-7.22,7.236-70.838,10.359-77.57,102.418
		c-5.887,80.633-6.217,110.676-6.217,110.676h158.785c0,0-6.185-147.924,0-161.357C195.95,223.496,132.333,197.144,130.261,185.246z
		"/>
	<path fill="#686868" d="M369.066,398.324c0,0-0.314-30.027-6.22-110.676c-6.718-92.075-70.333-95.167-77.569-102.419
		c-4.646-3.093-14.785-4.191-15.522,0c-2.057,11.882-65.688,38.269-59.474,51.72c6.216,13.438,0,161.375,0,161.375H369.066
		L369.066,398.324z"/>
</g>
</svg>
